<!DOCTYPE svg PUBLIC "-//W3C//DTD SVG 1.1//EN" "http://www.w3.org/Graphics/SVG/1.1/DTD/svg11.dtd">
<!-- Uploaded to: SVG Repo, www.svgrepo.com, Transformed by: SVG Repo Mixer Tools -->
<svg width="800px" height="800px" viewBox="0 0 1024 1024" class="icon" version="1.1" xmlns="http://www.w3.org/2000/svg" fill="#000000" data-darkreader-inline-fill="" style="--darkreader-inline-fill: var(--darkreader-background-000000, #000000);">
<g id="SVGRepo_bgCarrier" stroke-width="0"/>
<g id="SVGRepo_tracerCarrier" stroke-linecap="round" stroke-linejoin="round"/>
<g id="SVGRepo_iconCarrier">
<path d="M731.21 584.34c-100.99 0-182.86 81.87-182.86 182.86 0 100.99 81.87 182.86 182.86 182.86 100.99 0 182.86-81.87 182.86-182.86 0-100.99-81.87-182.86-182.86-182.86z m0 292.57c-60.5 0-109.71-49.22-109.71-109.71 0-60.5 49.22-109.71 109.71-109.71 60.5 0 109.71 49.22 109.71 109.71 0.01 60.49-49.21 109.71-109.71 109.71z" fill="#FFF" style="--darkreader-inline-fill: var(--darkreader-background-ffffff, #181a1b);" data-darkreader-inline-fill=""/>
<path d="M752.9 694.05h-43.89v51.2h-51.2v43.89h51.2v51.2h43.89v-51.2h51.2v-43.89h-51.2zM219.58 474.98h219.43v73.14H219.58z" fill="#FFF" style="--darkreader-inline-fill: var(--darkreader-background-ffffff, #181a1b);" data-darkreader-inline-fill=""/>
<path d="M182.67 365.88H768.3v179.46h73.14V145.21c0-39.96-32.52-72.46-72.48-72.46h-27.34c-29.18 0-55.04 16.71-65.89 42.61-5.68 13.57-27.89 13.55-33.54 0.02-10.84-25.89-36.7-42.62-65.89-42.62h-18.16c-29.18 0-55.04 16.71-65.89 42.61-5.68 13.57-27.89 13.55-33.54 0.02-10.84-25.89-36.7-42.62-65.89-42.62h-17.43c-29.18 0-55.04 16.71-65.89 42.61-5.68 13.57-27.89 13.55-33.54 0.02-10.84-25.89-36.7-42.62-65.89-42.62h-27.59c-39.96 0-72.46 32.5-72.46 72.46v805.14h401.2v-73.14h-328.1l-0.45-511.36z m25.8-222.26c14.29 34.05 47.36 56.05 84.25 56.05 36.91 0 69.98-22.02 82.66-53.79l15.84-2.27c14.29 34.05 47.36 56.05 84.25 56.05 36.91 0 69.98-22.02 82.66-53.79l16.57-2.27c14.29 34.05 47.36 56.05 84.25 56.05 36.91 0 69.98-22.02 82.66-53.79l26.68-0.68V292.7H182.6l-0.13-146.84 26-2.24z" fill="#FFF" style="--darkreader-inline-fill: var(--darkreader-background-ffffff, #181a1b);" data-darkreader-inline-fill=""/>
</g>
</svg>