<!DOCTYPE svg PUBLIC "-//W3C//DTD SVG 1.1//EN" "http://www.w3.org/Graphics/SVG/1.1/DTD/svg11.dtd">
<!-- Uploaded to: SVG Repo, www.svgrepo.com, Transformed by: SVG Repo Mixer Tools -->
<svg fill="#FFF" version="1.1" id="Capa_1" xmlns="http://www.w3.org/2000/svg" xmlns:xlink="http://www.w3.org/1999/xlink" viewBox="0 0 64.00 64.00" xml:space="preserve" width="800px" height="800px" style="--darkreader-inline-fill: var(--darkreader-background-ffffff, #181a1b); --darkreader-inline-stroke: var(--darkreader-text-ffffff, #e8e6e3);" stroke="#FFF" stroke-width="0.00064" data-darkreader-inline-fill="" data-darkreader-inline-stroke="">
<g id="SVGRepo_bgCarrier" stroke-width="0"/>
<g id="SVGRepo_tracerCarrier" stroke-linecap="round" stroke-linejoin="round"/>
<g id="SVGRepo_iconCarrier"> <g> <rect x="21" y="18" width="22" height="2"/> <rect x="21" y="24" width="17" height="2"/> <rect x="40" y="24" width="3" height="2"/> <rect x="21" y="28" width="17" height="2"/> <rect x="40" y="28" width="3" height="2"/> <rect x="21" y="32" width="17" height="2"/> <rect x="40" y="32" width="3" height="2"/> <rect x="21" y="36" width="17" height="2"/> <rect x="40" y="36" width="3" height="2"/> <rect x="21" y="40" width="17" height="2"/> <rect x="40" y="40" width="3" height="2"/> <rect x="21" y="47" width="14" height="2"/> <rect x="39" y="47" width="4" height="2"/> <path d="M49,0h-1H16h-1c-2.757,0-5,2.243-5,5s2.243,5,5,5v53c0,0.347,0.18,0.669,0.474,0.851c0.296,0.182,0.664,0.198,0.973,0.044 L20,62.118l3.553,1.776c0.281,0.141,0.613,0.141,0.895,0L28,62.118l3.553,1.776c0.281,0.141,0.613,0.141,0.895,0L36,62.118 l3.553,1.776c0.281,0.141,0.613,0.141,0.895,0L44,62.118l3.553,1.776C47.694,63.965,47.847,64,48,64 c0.183,0,0.365-0.05,0.526-0.149C48.82,63.668,49,63.347,49,63V10c2.757,0,5-2.243,5-5S51.757,0,49,0z M12,5c0-1.654,1.346-3,3-3v6 C13.346,8,12,6.654,12,5z M47,61.382l-2.553-1.276c-0.281-0.141-0.613-0.141-0.895,0L40,61.882l-3.553-1.776 C36.307,60.035,36.153,60,36,60s-0.307,0.035-0.447,0.106L32,61.882l-3.553-1.776c-0.281-0.141-0.613-0.141-0.895,0L24,61.882 l-3.553-1.776c-0.281-0.141-0.613-0.141-0.895,0L17,61.382V2h30V61.382z M49,8V2c1.654,0,3,1.346,3,3S50.654,8,49,8z"/> <path d="M32,16c2.757,0,5-2.243,5-5s-2.243-5-5-5s-5,2.243-5,5S29.243,16,32,16z M32,8c1.654,0,3,1.346,3,3s-1.346,3-3,3 s-3-1.346-3-3S30.346,8,32,8z"/> </g> </g>
</svg>